<svg width="156" height="52" viewBox="0 0 156 52" fill="none" xmlns="http://www.w3.org/2000/svg">
<path d="M41.5938 43.0312L43.7188 44.9375C38.8438 49.375 33.1042 51.5938 26.5 51.5938C19.4167 51.5938 13.375 49.1042 8.375 44.125C3.39583 39.125 0.90625 33.0833 0.90625 26C0.90625 18.9375 3.39583 12.9062 8.375 7.90625C13.375 2.90625 19.4167 0.40625 26.5 0.40625C33.1042 0.40625 38.8438 2.625 43.7188 7.0625L41.5938 9C37.3021 5.1875 32.2708 3.28125 26.5 3.28125C20.2292 3.28125 14.875 5.5 10.4375 9.9375C6 14.375 3.78125 19.7292 3.78125 26C3.78125 32.2917 6 37.6562 10.4375 42.0938C14.875 46.5312 20.2292 48.75 26.5 48.75C32.2708 48.75 37.3021 46.8438 41.5938 43.0312ZM54.375 1V51H51.5625V1H54.375ZM69.5938 45.25C72.2396 47.6667 75.3854 48.875 79.0312 48.875C82.9479 48.875 86.2917 47.4896 89.0625 44.7188C89.4167 44.3646 89.75 44 90.0625 43.625L93.0312 44.6875C92.4896 45.4375 91.875 46.1562 91.1875 46.8438C87.8333 50.1979 83.7812 51.875 79.0312 51.875C74.3021 51.875 70.2604 50.1979 66.9062 46.8438C63.5521 43.4896 61.875 39.4375 61.875 34.6875C61.875 29.9583 63.5521 25.9167 66.9062 22.5625C70.2604 19.2083 74.3021 17.5312 79.0312 17.5312C83.0938 17.5312 86.6458 18.75 89.6875 21.1875C90.1875 21.6042 90.6875 22.0625 91.1875 22.5625C91.375 22.75 91.5521 22.9375 91.7188 23.125L89.5938 25.25L69.5938 45.25ZM87.5312 23.3438C85.0938 21.4688 82.2604 20.5312 79.0312 20.5312C75.1354 20.5312 71.8021 21.9167 69.0312 24.6875C66.2604 27.4375 64.875 30.7708 64.875 34.6875C64.875 37.9167 65.8125 40.75 67.6875 43.1875L87.5312 23.3438ZM133.688 51H130.875V44.75C130.333 45.4792 129.74 46.1771 129.094 46.8438C125.74 50.1979 121.688 51.875 116.938 51.875C112.208 51.875 108.167 50.1979 104.812 46.8438C101.458 43.4896 99.7812 39.4479 99.7812 34.7188C99.7812 29.9688 101.458 25.9167 104.812 22.5625C108.167 19.2083 112.208 17.5312 116.938 17.5312C121.688 17.5312 125.74 19.2083 129.094 22.5625C129.74 23.2292 130.333 23.9271 130.875 24.6562V20.3125H133.688V51ZM130.875 37.5V31.9375C130.354 29.1875 129.052 26.7708 126.969 24.6875C124.198 21.9167 120.854 20.5312 116.938 20.5312C113.021 20.5312 109.677 21.9167 106.906 24.6875C104.135 27.4583 102.75 30.8021 102.75 34.7188C102.75 38.6354 104.135 41.9792 106.906 44.75C109.677 47.5 113.021 48.875 116.938 48.875C120.854 48.875 124.198 47.4896 126.969 44.7188C129.052 42.6354 130.354 40.2292 130.875 37.5ZM143.062 20.3125H145.875V25.9062C146.458 25.0729 147.135 24.2708 147.906 23.5C150.385 21.0208 152.927 19.7188 155.531 19.5938V22.6562C153.76 22.7396 151.927 23.7292 150.031 25.625C147.365 28.2708 145.979 31.4479 145.875 35.1562V51H143.062V20.3125Z" fill="black"/>
</svg>
