<svg width="262" height="237" viewBox="0 0 262 237" fill="none" xmlns="http://www.w3.org/2000/svg">
<rect width="262" height="237" rx="26" fill="#D9D9D9"/>
<path d="M186.997 168.473L203.077 182.894C183.435 200.807 162.652 209.764 140.727 209.764C117.281 209.764 97.2928 201.499 80.7629 184.969C64.233 168.439 55.968 148.451 55.968 125.005C55.968 101.628 64.233 81.6396 80.7629 65.0405C97.2928 48.4415 117.281 40.1419 140.727 40.1419C162.652 40.1419 183.435 49.0985 203.077 67.0117L186.997 81.6396C172.196 68.4987 156.773 61.9282 140.727 61.9282C123.367 61.9282 108.497 68.0837 96.117 80.3947C83.806 92.7057 77.6506 107.576 77.6506 125.005C77.6506 142.503 83.806 157.407 96.117 169.718C108.497 182.029 123.367 188.185 140.727 188.185C156.773 188.185 172.196 181.614 186.997 168.473Z" fill="black"/>
</svg>
